<?xml version="1.0" encoding="UTF-8" standalone="no"?><!DOCTYPE svg PUBLIC "-//W3C//DTD SVG 1.1//EN" "http://www.w3.org/Graphics/SVG/1.1/DTD/svg11.dtd"><svg width="100%" height="100%" viewBox="0 0 5926 1636" version="1.1" xmlns="http://www.w3.org/2000/svg" xmlns:xlink="http://www.w3.org/1999/xlink" xml:space="preserve" xmlns:serif="http://www.serif.com/" style="fill-rule:evenodd;clip-rule:evenodd;stroke-linejoin:round;stroke-miterlimit:2;"><rect id="Página-3" serif:id="Página 3" x="0" y="0" width="5925.926" height="1635.802" style="fill:none;"/><g id="Layer-1" serif:id="Layer 1"><path d="M2736.556,576.528l0,-254.017l163.4,0l0,34.208l-122.642,0l0,73.875l111.363,0l0,34.208l-111.363,0l0,111.725l-40.758,0Z" style="fill:#231f20;fill-rule:nonzero;"/><path d="M3071.708,544.502l-1.821,0c-8.004,19.65 -23.287,36.392 -54.225,36.392c-37.846,0 -63.321,-25.837 -63.321,-71.329l0,-120.821l39.671,0l0,115c0,29.842 13.463,44.762 38.938,44.762c20.379,0 40.758,-10.554 40.758,-32.387l0,-127.375l39.667,0l0,187.783l-39.667,0l0,-32.025Z" style="fill:#231f20;fill-rule:nonzero;"/><path d="M3172.492,576.528l0,-187.783l39.671,0l0,32.025l1.817,0c8.008,-19.654 23.292,-36.392 54.225,-36.392c37.85,0 63.321,25.837 63.321,71.329l0,120.821l-39.667,0l0,-115c0,-29.842 -13.463,-44.762 -38.938,-44.762c-20.379,0 -40.758,10.554 -40.758,32.392l0,127.371l-39.671,0Z" style="fill:#231f20;fill-rule:nonzero;"/><path d="M3510.191,513.934l0,-62.596c0,-22.925 -19.65,-34.571 -42.579,-34.571c-29.842,0 -46.946,20.012 -46.946,50.583l0,30.571c0,30.567 17.104,50.583 46.946,50.583c22.929,0 42.579,-11.646 42.579,-34.571m0,30.567l-2.183,0c-10.917,22.562 -29.112,36.392 -56.771,36.392c-44.033,0 -72.421,-33.842 -72.421,-98.258c0,-64.412 28.387,-98.258 72.421,-98.258c27.658,0 45.854,13.829 56.771,36.396l2.183,0l0,-113.546l39.671,0l0,269.3l-39.671,0l0,-32.025Z" style="fill:#231f20;fill-rule:nonzero;"/><path d="M3718.697,520.483l0,-27.292l-35.3,0c-29.112,0 -42.942,9.096 -42.942,25.837l0,7.275c0,16.746 13.1,25.475 34.208,25.475c25.471,0 44.033,-12.733 44.033,-31.296m38.938,56.046c-22.562,0 -33.842,-12.737 -36.025,-31.663l-1.821,0c-7.279,22.562 -26.929,36.029 -56.408,36.029c-38.213,0 -62.958,-21.471 -62.958,-56.771c0,-36.396 26.567,-56.046 82.246,-56.046l36.029,0l0,-14.558c0,-25.108 -13.467,-38.212 -40.396,-38.212c-24.017,0 -38.212,10.192 -48.404,25.837l-23.654,-19.283c10.554,-20.383 36.029,-37.488 75.696,-37.488c47.312,0 76.425,23.658 76.425,66.6l0,94.254l23.654,0l0,31.3l-24.383,0Z" style="fill:#231f20;fill-rule:nonzero;"/><path d="M3985.795,428.776l-30.933,16.742c-6.55,-17.471 -20.379,-28.387 -42.217,-28.387c-29.838,0 -47.308,20.017 -47.308,49.858l0,31.296c0,29.479 17.104,49.858 48.038,49.858c23.292,0 37.483,-11.646 46.217,-29.842l29.117,17.833c-11.646,25.837 -34.938,43.671 -72.421,44.758l-3.642,16.742l1.458,1.454c5.096,-1.454 10.554,-2.546 15.646,-2.546c14.196,0 25.479,8.008 25.479,24.75c0,22.196 -20.746,31.296 -43.671,31.296c-21.837,0 -34.212,-8.371 -39.671,-15.288l14.921,-17.104c4.371,5.458 12.008,10.192 22.929,10.192c9.096,0 16.013,-3.275 16.013,-10.554c0,-5.821 -4.367,-12.008 -25.838,-14.558l-9.1,-1.092l5.096,-24.746c-45.492,-6.913 -72.058,-43.304 -72.058,-96.804c0,-60.046 33.479,-98.258 88.796,-98.258c38.579,0 61.504,18.196 73.15,44.4" style="fill:#231f20;fill-rule:nonzero;"/><path d="M4155.363,520.483l0,-27.292l-35.3,0c-29.112,0 -42.942,9.096 -42.942,25.838l0,7.275c0,16.746 13.1,25.475 34.208,25.475c25.471,0 44.033,-12.733 44.033,-31.296m-37.121,-172.137c-10.917,-5.458 -19.288,-8.367 -26.929,-8.367c-8.004,0 -13.829,3.275 -21.108,9.462l-14.921,-18.925c7.279,-11.283 19.654,-20.742 37.483,-20.742c12.008,0 20.379,4.367 28.388,8.367c10.917,5.463 19.287,8.371 26.929,8.371c8.008,0 13.829,-3.275 21.108,-9.462l14.921,18.925c-7.279,11.283 -19.65,20.746 -37.483,20.746c-12.012,0 -20.379,-4.371 -28.387,-8.375m76.058,228.183c-22.562,0 -33.842,-12.738 -36.025,-31.663l-1.821,0c-7.279,22.562 -26.929,36.029 -56.408,36.029c-38.213,0 -62.958,-21.471 -62.958,-56.771c0,-36.396 26.567,-56.046 82.246,-56.046l36.029,0l0,-14.558c0,-25.108 -13.467,-38.212 -40.396,-38.212c-24.017,0 -38.213,10.192 -48.404,25.837l-23.654,-19.283c10.554,-20.383 36.029,-37.487 75.696,-37.487c47.312,0 76.425,23.658 76.425,66.6l0,94.254l23.654,0l0,31.3l-24.383,0Z" style="fill:#231f20;fill-rule:nonzero;"/><path d="M4390.434,496.828l0,-28.383c0,-34.938 -18.925,-52.771 -47.675,-52.771c-28.75,0 -47.671,17.833 -47.671,52.771l0,28.383c0,34.938 18.921,52.771 47.671,52.771c28.75,0 47.675,-17.833 47.675,-52.771m-136.833,-14.192c0,-60.046 33.846,-98.258 89.158,-98.258c55.317,0 89.163,38.212 89.163,98.258c0,60.046 -33.846,98.258 -89.163,98.258c-55.312,0 -89.158,-38.213 -89.158,-98.258" style="fill:#231f20;fill-rule:nonzero;"/><path d="M2863.202,934.592l0,-30.571c0,-30.567 -17.104,-50.583 -46.946,-50.583c-22.929,0 -42.579,11.646 -42.579,34.571l0,62.596c0,22.929 19.65,34.575 42.579,34.575c29.842,0 46.946,-20.017 46.946,-50.587m-129.192,-109.175l39.667,0l0,32.021l2.183,0c10.917,-22.562 29.113,-36.388 56.771,-36.388c44.033,0 72.421,33.842 72.421,98.258c0,64.413 -28.387,98.258 -72.421,98.258c-27.658,0 -45.854,-13.829 -56.771,-36.392l-2.183,0l0,104.808l-39.667,0l0,-260.567Z" style="fill:#231f20;fill-rule:nonzero;"/><path d="M3063.703,957.155l0,-27.292l-35.3,0c-29.112,0 -42.942,9.096 -42.942,25.838l0,7.275c0,16.742 13.1,25.479 34.208,25.479c25.471,0 44.033,-12.737 44.033,-31.3m38.942,56.046c-22.567,0 -33.846,-12.737 -36.029,-31.662l-1.821,0c-7.279,22.562 -26.929,36.029 -56.408,36.029c-38.213,0 -62.958,-21.471 -62.958,-56.771c0,-36.392 26.567,-56.046 82.246,-56.046l36.029,0l0,-14.558c0,-25.108 -13.463,-38.212 -40.396,-38.212c-24.017,0 -38.212,10.192 -48.404,25.842l-23.65,-19.288c10.55,-20.383 36.025,-37.483 75.696,-37.483c47.308,0 76.421,23.654 76.421,66.596l0,94.254l23.654,0l0,31.3l-24.379,0Z" style="fill:#231f20;fill-rule:nonzero;"/><path d="M3169.582,981.174l49.854,0l0,-123.733l-49.854,0l0,-32.025l89.525,0l0,49.858l2.183,0c7.279,-26.204 23.654,-49.858 61.867,-49.858l22.562,0l0,37.846l-37.121,0c-32.387,0 -49.492,21.475 -49.492,47.675l0,70.238l68.05,0l0,32.025l-157.575,0l0,-32.025Z" style="fill:#231f20;fill-rule:nonzero;"/><path d="M3500.367,957.155l0,-27.292l-35.3,0c-29.112,0 -42.942,9.096 -42.942,25.838l0,7.275c0,16.742 13.1,25.479 34.208,25.479c25.471,0 44.033,-12.737 44.033,-31.3m38.938,56.046c-22.562,0 -33.842,-12.737 -36.025,-31.662l-1.821,0c-7.279,22.562 -26.929,36.029 -56.408,36.029c-38.213,0 -62.958,-21.471 -62.958,-56.771c0,-36.392 26.567,-56.046 82.246,-56.046l36.029,0l0,-14.558c0,-25.108 -13.467,-38.212 -40.396,-38.212c-24.017,0 -38.212,10.192 -48.404,25.842l-23.654,-19.288c10.554,-20.383 36.029,-37.483 75.696,-37.483c47.312,0 76.425,23.654 76.425,66.596l0,94.254l23.654,0l0,31.3l-24.383,0Z" style="fill:#231f20;fill-rule:nonzero;"/><path d="M3937.03,957.155l0,-27.292l-35.3,0c-29.112,0 -42.942,9.096 -42.942,25.838l0,7.275c0,16.742 13.1,25.479 34.208,25.479c25.471,0 44.033,-12.737 44.033,-31.3m38.942,56.046c-22.567,0 -33.846,-12.737 -36.029,-31.662l-1.821,0c-7.279,22.562 -26.929,36.029 -56.408,36.029c-38.213,0 -62.958,-21.471 -62.958,-56.771c0,-36.392 26.567,-56.046 82.246,-56.046l36.029,0l0,-14.558c0,-25.108 -13.463,-38.212 -40.396,-38.212c-24.017,0 -38.212,10.192 -48.404,25.842l-23.65,-19.288c10.55,-20.383 36.025,-37.483 75.696,-37.483c47.308,0 76.421,23.654 76.421,66.596l0,94.254l23.654,0l0,31.3l-24.379,0Z" style="fill:#231f20;fill-rule:nonzero;"/><path d="M4254.692,886.191c0,-84.067 30.933,-131.375 95.346,-131.375c49.129,0 71.692,28.383 83.337,62.958l-36.754,12.371c-7.642,-23.292 -18.196,-41.487 -46.946,-41.487c-36.029,0 -51.675,29.479 -51.675,76.062l0,42.942c0,46.579 15.646,76.058 51.675,76.058c28.75,0 39.304,-18.196 46.946,-41.488l36.754,12.375c-11.646,34.571 -34.208,62.958 -83.337,62.958c-64.413,0 -95.346,-47.308 -95.346,-131.375" style="fill:#231f20;fill-rule:nonzero;"/><path d="M4545.445,769.736l0,-7.642c0,-12.012 7.279,-21.471 26.929,-21.471c20.017,0 27.296,9.458 27.296,21.471l0,7.642c0,12.008 -7.279,21.471 -26.929,21.471c-20.017,0 -27.296,-9.463 -27.296,-21.471m-56.771,211.438l64.05,0l0,-123.733l-64.05,0l0,-32.025l103.717,0l0,155.758l60.046,0l0,32.025l-163.762,0l0,-32.025Z" style="fill:#231f20;fill-rule:nonzero;"/><path d="M4732.117,901.112l0,2.546l94.254,0l0,-3.637c0,-29.479 -18.196,-48.767 -45.854,-48.767c-28.383,0 -48.4,20.746 -48.4,49.858m67.692,-169.587l43.667,54.587l-21.104,15.283l-42.946,-42.213l-43.308,42.213l-20.012,-15.283l43.671,-54.587l40.033,0Zm-107.725,188.146c0,-60.408 34.938,-98.621 88.433,-98.621c52.771,0 86.25,37.846 86.25,93.163l0,14.921l-134.65,0l0,6.188c0,29.479 19.65,50.221 52.042,50.221c24.017,0 41.487,-11.283 52.037,-28.75l24.746,21.833c-12.733,21.837 -38.938,38.942 -77.512,38.942c-57.5,0 -91.346,-38.212 -91.346,-97.896" style="fill:#231f20;fill-rule:nonzero;"/><path d="M4919.151,1013.199l0,-187.783l39.667,0l0,32.025l1.821,0c8.004,-19.654 23.287,-36.392 54.225,-36.392c37.846,0 63.321,25.837 63.321,71.325l0,120.825l-39.671,0l0,-115c0,-29.842 -13.463,-44.762 -38.938,-44.762c-20.379,0 -40.758,10.554 -40.758,32.392l0,127.371l-39.667,0Z" style="fill:#231f20;fill-rule:nonzero;"/><path d="M5133.844,919.307c0,-60.046 33.479,-98.258 88.796,-98.258c38.575,0 61.504,18.196 73.15,44.4l-30.933,16.738c-6.55,-17.467 -20.379,-28.383 -42.217,-28.383c-29.842,0 -47.308,20.017 -47.308,49.858l0,31.296c0,29.479 17.104,49.858 48.037,49.858c23.292,0 37.483,-11.646 46.217,-29.842l29.113,17.829c-12.008,26.204 -36.388,44.763 -75.696,44.763c-56.042,0 -89.158,-38.208 -89.158,-98.258" style="fill:#231f20;fill-rule:nonzero;"/><path d="M5418.774,769.736l0,-7.642c0,-12.012 7.279,-21.471 26.929,-21.471c20.017,0 27.296,9.458 27.296,21.471l0,7.642c0,12.008 -7.279,21.471 -26.933,21.471c-20.013,0 -27.292,-9.463 -27.292,-21.471m-56.771,211.438l64.05,0l0,-123.733l-64.05,0l0,-32.025l103.717,0l0,155.758l60.046,0l0,32.025l-163.762,0l0,-32.025Z" style="fill:#231f20;fill-rule:nonzero;"/><path d="M5683.687,957.155l0,-27.292l-35.3,0c-29.113,0 -42.942,9.096 -42.942,25.838l0,7.275c0,16.742 13.1,25.479 34.208,25.479c25.471,0 44.033,-12.737 44.033,-31.3m38.938,56.046c-22.562,0 -33.842,-12.737 -36.025,-31.662l-1.821,0c-7.279,22.562 -26.929,36.029 -56.408,36.029c-38.212,0 -62.958,-21.471 -62.958,-56.771c0,-36.392 26.567,-56.046 82.246,-56.046l36.029,0l0,-14.558c0,-25.108 -13.467,-38.212 -40.396,-38.212c-24.017,0 -38.213,10.192 -48.404,25.842l-23.654,-19.288c10.554,-20.383 36.029,-37.483 75.696,-37.483c47.312,0 76.425,23.654 76.425,66.596l0,94.254l23.654,0l0,31.3l-24.383,0Z" style="fill:#231f20;fill-rule:nonzero;"/><path d="M2767.127,1337.782l0,2.546l94.254,0l0,-3.638c0,-29.479 -18.196,-48.767 -45.854,-48.767c-28.383,0 -48.4,20.746 -48.4,49.858m-40.033,18.558c0,-60.408 34.938,-98.621 88.433,-98.621c52.771,0 86.25,37.846 86.25,93.162l0,14.921l-134.65,0l0,6.188c0,29.479 19.65,50.221 52.042,50.221c24.017,0 41.488,-11.283 52.037,-28.75l24.746,21.837c-12.733,21.833 -38.938,38.938 -77.512,38.938c-57.5,0 -91.346,-38.213 -91.346,-97.896" style="fill:#231f20;fill-rule:nonzero;"/><path d="M3282.034,1393.825l0,-27.292l-35.3,0c-29.112,0 -42.942,9.096 -42.942,25.837l0,7.275c0,16.742 13.1,25.479 34.208,25.479c25.471,0 44.033,-12.737 44.033,-31.3m38.942,56.046c-22.567,0 -33.846,-12.737 -36.029,-31.662l-1.821,0c-7.279,22.562 -26.929,36.029 -56.408,36.029c-38.213,0 -62.958,-21.471 -62.958,-56.771c0,-36.392 26.567,-56.046 82.246,-56.046l36.029,0l0,-14.558c0,-25.108 -13.463,-38.213 -40.396,-38.213c-24.017,0 -38.212,10.192 -48.404,25.842l-23.65,-19.287c10.55,-20.383 36.025,-37.487 75.696,-37.487c47.308,0 76.421,23.658 76.421,66.6l0,94.254l23.654,0l0,31.3l-24.379,0Z" style="fill:#231f20;fill-rule:nonzero;"/><path d="M3708.144,1230.059l0,219.808l-40.758,0l0,-219.808l-79.7,0l0,-34.208l200.154,0l0,34.208l-79.696,0Z" style="fill:#231f20;fill-rule:nonzero;"/><path d="M3858.787,1337.782l0,2.546l94.254,0l0,-3.638c0,-29.479 -18.196,-48.767 -45.854,-48.767c-28.383,0 -48.4,20.746 -48.4,49.858m-40.029,18.558c0,-60.408 34.933,-98.621 88.429,-98.621c52.771,0 86.25,37.846 86.25,93.162l0,14.921l-134.65,0l0,6.188c0,29.479 19.65,50.221 52.042,50.221c24.017,0 41.488,-11.283 52.037,-28.75l24.75,21.837c-12.737,21.833 -38.942,38.938 -77.517,38.938c-57.5,0 -91.342,-38.213 -91.342,-97.896" style="fill:#231f20;fill-rule:nonzero;"/><path d="M4042.184,1355.977c0,-60.046 33.479,-98.258 88.796,-98.258c38.575,0 61.504,18.196 73.15,44.4l-30.933,16.737c-6.55,-17.467 -20.379,-28.383 -42.217,-28.383c-29.842,0 -47.308,20.017 -47.308,49.858l0,31.296c0,29.479 17.104,49.858 48.037,49.858c23.292,0 37.483,-11.646 46.217,-29.842l29.113,17.829c-12.008,26.204 -36.388,44.767 -75.696,44.767c-56.042,0 -89.158,-38.212 -89.158,-98.262" style="fill:#231f20;fill-rule:nonzero;"/><path d="M4264.154,1449.869l0,-187.783l39.667,0l0,32.025l1.821,0c8.004,-19.654 23.287,-36.392 54.225,-36.392c37.846,0 63.321,25.838 63.321,71.325l0,120.825l-39.671,0l0,-115c0,-29.842 -13.463,-44.762 -38.938,-44.762c-20.379,0 -40.758,10.554 -40.758,32.392l0,127.371l-39.667,0Z" style="fill:#231f20;fill-rule:nonzero;"/><path d="M4608.767,1370.169l0,-28.383c0,-34.938 -18.925,-52.771 -47.671,-52.771c-28.754,0 -47.675,17.833 -47.675,52.771l0,28.383c0,34.938 18.921,52.771 47.675,52.771c28.746,0 47.671,-17.833 47.671,-52.771m-136.833,-14.192c0,-60.046 33.842,-98.258 89.162,-98.258c55.312,0 89.158,38.212 89.158,98.258c0,60.046 -33.846,98.258 -89.158,98.258c-55.321,0 -89.162,-38.213 -89.162,-98.258" style="fill:#231f20;fill-rule:nonzero;"/><path d="M4697.544,1417.844l62.229,0l0,-205.254l-62.229,0l0,-32.021l101.9,0l0,237.275l62.229,0l0,32.025l-164.129,0l0,-32.025Z" style="fill:#231f20;fill-rule:nonzero;"/><path d="M5045.431,1370.169l0,-28.383c0,-34.938 -18.925,-52.771 -47.675,-52.771c-28.75,0 -47.671,17.833 -47.671,52.771l0,28.383c0,34.938 18.921,52.771 47.671,52.771c28.75,0 47.675,-17.833 47.675,-52.771m-136.833,-14.192c0,-60.046 33.846,-98.258 89.158,-98.258c55.317,0 89.163,38.212 89.163,98.258c0,60.046 -33.846,98.258 -89.163,98.258c-55.312,0 -89.158,-38.213 -89.158,-98.258" style="fill:#231f20;fill-rule:nonzero;"/><path d="M5252.118,1328.32l0,-9.825c0,-20.017 -12.008,-33.483 -37.483,-33.483c-25.475,0 -37.483,13.467 -37.483,33.483l0,9.825c0,20.017 12.008,33.479 37.483,33.479c25.475,0 37.483,-13.463 37.483,-33.479m-10.188,123.733l-65.146,0c-9.096,4.367 -13.825,11.279 -13.825,21.108c0,14.192 10.917,25.837 38.571,25.837l29.479,0c29.842,0 46.217,-9.1 46.217,-26.204c0,-12.733 -8.729,-20.742 -35.296,-20.742m-26.204,74.967c-64.779,0 -87.342,-17.104 -87.342,-45.125c0,-20.379 12.012,-30.933 32.754,-36.392l0,-3.642c-12.737,-4.729 -20.742,-13.1 -20.742,-27.292c0,-18.558 14.192,-26.933 33.842,-31.662l0,-1.817c-22.562,-10.558 -36.029,-30.571 -36.029,-57.504c0,-40.029 30.208,-65.867 76.425,-65.867c13.1,0 25.108,2.183 35.3,6.188l0,-6.188c0,-14.558 8.371,-25.475 25.108,-25.475l34.212,0l0,31.296l-43.675,0l0,8.733c16.379,11.283 25.479,28.75 25.479,51.312c0,40.033 -30.208,65.508 -76.425,65.508c-8.371,0 -16.012,-0.729 -23.292,-2.183c-8.733,2.183 -19.65,8.004 -19.65,18.196c0,11.646 12.733,13.1 29.113,13.1l42.212,0c50.588,0 71.333,21.108 71.333,52.042c0,38.575 -32.392,56.771 -98.625,56.771" style="fill:#231f20;fill-rule:nonzero;"/><path d="M5418.774,1206.406l0,-7.642c0,-12.013 7.279,-21.471 26.929,-21.471c20.017,0 27.296,9.458 27.296,21.471l0,7.642c0,12.008 -7.279,21.471 -26.933,21.471c-20.013,0 -27.292,-9.463 -27.292,-21.471m-56.771,211.438l64.05,0l0,-123.733l-64.05,0l0,-32.025l103.717,0l0,155.758l60.046,0l0,32.025l-163.762,0l0,-32.025Z" style="fill:#231f20;fill-rule:nonzero;"/><path d="M5683.687,1393.825l0,-27.292l-35.3,0c-29.113,0 -42.942,9.096 -42.942,25.837l0,7.275c0,16.742 13.1,25.479 34.208,25.479c25.471,0 44.033,-12.737 44.033,-31.3m38.938,56.046c-22.562,0 -33.842,-12.737 -36.025,-31.662l-1.821,0c-7.279,22.562 -26.929,36.029 -56.408,36.029c-38.212,0 -62.958,-21.471 -62.958,-56.771c0,-36.392 26.567,-56.046 82.246,-56.046l36.029,0l0,-14.558c0,-25.108 -13.467,-38.213 -40.396,-38.213c-24.017,0 -38.213,10.192 -48.404,25.842l-23.654,-19.287c10.554,-20.383 36.029,-37.487 75.696,-37.487c47.312,0 76.425,23.658 76.425,66.6l0,94.254l23.654,0l0,31.3l-24.383,0Z" style="fill:#231f20;fill-rule:nonzero;"/><path d="M597.06,674.014l281.171,0l0,120.933l-281.171,0l0,538.837l281.171,0l0,120.933l-649.933,0l0,-120.933l231.717,0l0,-538.837l-231.717,0l0,-120.933l181.783,0c27.575,0 49.933,-22.354 49.933,-49.933l0,-76.054c0,-30.9 12.275,-60.533 34.125,-82.383l129.908,-129.912c21.85,-21.85 51.488,-33.462 82.388,-33.462l171.796,0l0,120.271l-281.171,0l0,251.475Z" style="fill:#231f20;fill-rule:nonzero;"/><path d="M1261.502,302.267l293.667,0l0,120.933l-405.117,0l0,589.679l405.117,0l0,120.933l-293.667,0c-30.9,0 -60.537,-12.275 -82.388,-34.125l-132,-132c-21.85,-21.85 -34.125,-51.487 -34.125,-82.387l0,-334.521c0,-30.904 12.275,-60.538 34.125,-82.388l132,-132c21.85,-21.85 51.487,-34.125 82.388,-34.125" style="fill:#231f20;fill-rule:nonzero;"/><path d="M1910.231,896.551l0,-473.35l-227.825,0l0,-120.933l177.892,0c27.579,0 49.933,-22.358 49.933,-49.933l0,-143.55l137.046,0l0,193.483l295.487,0l0,120.933l-295.487,0l0,589.679l295.487,0l0,120.929l-210.371,0c-33.596,0 -65.558,-14.5 -87.683,-39.787l-105.654,-120.75c-18.583,-21.237 -28.825,-48.5 -28.825,-76.721" style="fill:#231f20;fill-rule:nonzero;"/><rect x="1012.99" y="1333.806" width="1329.771" height="120.912" style="fill:#231f20;"/></g></svg>